<svg id="svg"
     version="1.1"
     xmlns="http://www.w3.org/2000/svg" xmlns:xlink="http://www.w3.org/1999/xlink"
     width="400"
     height="400"
     viewBox="0, 0, 400,400">
    <g id="svgg">
    <path id="path0"
          d="M126.389 51.788 C 125.339 51.929,122.448 52.672,119.965 53.439 C 117.483 54.206,114.365 55.084,113.037 55.392 C 103.010 57.713,78.864 67.597,66.713 74.356 C 43.091 87.493,24.592 105.030,15.611 122.800 C 8.943 135.992,7.796 141.091,8.087 156.250 C 8.445 174.845,13.154 186.887,25.464 200.681 C 26.578 201.930,28.166 203.889,28.993 205.035 C 32.558 209.976,51.500 225.379,61.979 231.859 C 66.747 234.806,84.521 244.097,85.392 244.097 C 86.135 244.097,85.720 243.107,83.488 239.557 C 74.073 224.583,72.229 208.841,79.105 202.143 C 86.216 195.217,99.405 194.623,110.725 200.720 C 119.273 205.325,132.268 218.269,135.872 225.770 C 137.893 229.976,138.107 229.886,140.642 223.785 C 149.647 202.115,165.780 200.828,181.315 220.540 C 187.852 228.834,190.875 235.141,196.507 252.237 C 197.951 256.619,199.320 260.262,199.549 260.333 C 199.990 260.471,200.812 257.967,201.233 255.208 C 201.551 253.123,204.091 245.554,206.428 239.730 C 215.523 217.064,232.350 202.855,244.437 207.634 C 250.664 210.096,256.356 217.046,259.601 226.150 C 260.090 227.523,260.596 228.760,260.725 228.900 C 260.854 229.040,262.233 227.243,263.790 224.907 C 277.249 204.709,292.470 194.871,307.636 196.568 C 326.274 198.653,329.456 216.091,315.558 239.990 C 313.932 242.786,314.372 242.801,319.716 240.138 C 341.685 229.189,359.690 215.762,370.292 202.422 C 371.426 200.994,373.255 198.704,374.357 197.333 C 379.057 191.479,386.112 176.460,387.538 169.271 C 388.300 165.436,388.200 144.637,387.400 140.339 C 385.674 131.071,377.899 115.833,370.625 107.464 C 348.447 81.944,317.812 64.612,274.306 52.968 C 269.326 51.635,266.733 52.132,269.707 53.848 C 272.207 55.291,282.477 75.573,284.343 82.751 C 290.877 107.895,282.389 129.987,263.756 136.329 C 251.059 140.651,238.015 130.117,233.170 111.626 C 232.347 108.488,229.111 79.868,227.949 65.451 C 227.376 58.342,226.767 53.206,226.418 52.528 C 226.171 52.049,222.483 56.115,221.497 57.954 C 221.162 58.577,220.266 59.620,219.506 60.271 C 218.745 60.922,217.220 62.784,216.117 64.408 L 214.111 67.361 199.614 67.361 L 185.118 67.361 180.257 61.198 C 172.040 50.778,172.536 50.957,171.892 58.182 C 171.671 60.652,170.882 68.064,170.138 74.653 C 169.394 81.241,168.533 89.679,168.226 93.403 C 166.204 117.923,161.364 128.555,149.279 135.024 C 143.509 138.112,139.977 138.466,134.813 136.470 C 117.811 129.902,109.800 111.935,113.348 88.327 C 114.461 80.923,121.207 65.131,126.177 58.293 C 127.153 56.951,128.303 55.373,128.733 54.785 C 130.489 52.383,129.677 51.344,126.389 51.788 "
          stroke="none"
          fill="#040404"
          fill-rule="evenodd">
    </path>
    </g>
</svg>